<svg width="21" height="21" viewBox="0 0 21 21" fill="none" xmlns="http://www.w3.org/2000/svg">
<path d="M17.9812 4.5675L16.765 3.0975C16.52 2.80875 16.1613 2.625 15.75 2.625H5.25C4.83875 2.625 4.48 2.80875 4.24375 3.10625L3.0275 4.5675C2.77375 4.87375 2.625 5.25875 2.625 5.6875V16.625C2.625 17.5875 3.40375 18.375 4.375 18.375H16.625C17.5875 18.375 18.375 17.5875 18.375 16.625V5.6875C18.375 5.25875 18.2262 4.87375 17.9812 4.5675ZM10.8063 8.61875L15.3125 13.125H12.25V14.875H8.75V13.125H5.6875L10.1937 8.61875C10.36 8.4525 10.64 8.4525 10.8063 8.61875ZM4.48 4.375L5.1975 3.5H15.6975L16.5113 4.375H4.48Z" fill="#EB5270"/>
</svg>
