<svg width="21" height="21" viewBox="0 0 21 21" fill="none" xmlns="http://www.w3.org/2000/svg">
<path d="M12.25 8.3125H14.875C15.3562 8.3125 15.75 7.91875 15.75 7.4375C15.75 6.95625 15.3562 6.5625 14.875 6.5625H12.25C11.7688 6.5625 11.375 6.95625 11.375 7.4375C11.375 7.91875 11.7688 8.3125 12.25 8.3125ZM12.25 14.4375H14.875C15.3562 14.4375 15.75 14.0437 15.75 13.5625C15.75 13.0813 15.3562 12.6875 14.875 12.6875H12.25C11.7688 12.6875 11.375 13.0813 11.375 13.5625C11.375 14.0437 11.7688 14.4375 12.25 14.4375ZM16.625 18.375H4.375C3.4125 18.375 2.625 17.5875 2.625 16.625V4.375C2.625 3.4125 3.4125 2.625 4.375 2.625H16.625C17.5875 2.625 18.375 3.4125 18.375 4.375V16.625C18.375 17.5875 17.5875 18.375 16.625 18.375ZM6.125 9.625H8.75C9.23125 9.625 9.625 9.23125 9.625 8.75V6.125C9.625 5.64375 9.23125 5.25 8.75 5.25H6.125C5.64375 5.25 5.25 5.64375 5.25 6.125V8.75C5.25 9.23125 5.64375 9.625 6.125 9.625ZM6.125 6.125H8.75V8.75H6.125V6.125ZM6.125 15.75H8.75C9.23125 15.75 9.625 15.3562 9.625 14.875V12.25C9.625 11.7688 9.23125 11.375 8.75 11.375H6.125C5.64375 11.375 5.25 11.7688 5.25 12.25V14.875C5.25 15.3562 5.64375 15.75 6.125 15.75ZM6.125 12.25H8.75V14.875H6.125V12.25Z" fill="#EB5270"/>
</svg>
