<svg width="49" height="49" viewBox="0 0 49 49" fill="none" xmlns="http://www.w3.org/2000/svg">
<path d="M12.9231 22.2815H4.95239C3.85642 22.2815 2.95972 23.1748 2.95972 24.2667C2.95972 25.3585 3.85642 26.2518 4.95239 26.2518H12.9231C14.0191 26.2518 14.9158 25.3585 14.9158 24.2667C14.9158 23.1748 14.0191 22.2815 12.9231 22.2815ZM17.845 14.4598L16.4103 13.0305C15.6331 12.2563 14.3777 12.2563 13.6006 13.0305C12.8235 13.8047 12.8235 15.0554 13.6006 15.8296L15.0154 17.2391C15.7925 18.0133 17.0479 18.0133 17.8251 17.2391C18.6022 16.4847 18.6022 15.2142 17.845 14.4598ZM24.8791 2.42963C23.7632 2.42963 22.8865 3.32296 22.8865 4.41481V12.3556C22.8865 13.4474 23.7832 14.3407 24.8791 14.3407C25.9751 14.3407 26.8718 13.4474 26.8718 12.3556V4.41481C26.8718 3.32296 25.9751 2.42963 24.8791 2.42963ZM36.1577 13.0504C35.3805 12.2761 34.1251 12.2761 33.348 13.0504L31.9332 14.4598C31.1561 15.2341 31.1561 16.4847 31.9332 17.259C32.7103 18.0332 33.9657 18.0332 34.7429 17.259L36.1577 15.8495C36.9149 15.0753 36.9149 13.8047 36.1577 13.0504ZM34.8425 24.2667C34.8425 25.3784 35.7392 26.2518 36.8352 26.2518H44.8059C45.9018 26.2518 46.7985 25.3585 46.7985 24.2667C46.7985 23.1748 45.9018 22.2815 44.8059 22.2815H36.8352C35.7392 22.2815 34.8425 23.1748 34.8425 24.2667ZM24.8791 18.3111C21.5713 18.3111 18.9011 20.9713 18.9011 24.2667C18.9011 27.5621 21.5713 30.2222 24.8791 30.2222C28.187 30.2222 30.8572 27.5621 30.8572 24.2667C30.8572 20.9713 28.187 18.3111 24.8791 18.3111ZM31.9133 34.0735L33.3281 35.483C34.1052 36.2572 35.3606 36.2572 36.1377 35.483C36.9149 34.7087 36.9149 33.4581 36.1377 32.6838L34.7229 31.2744C33.9458 30.5001 32.6904 30.5001 31.9133 31.2744C31.1561 32.0486 31.1561 33.3191 31.9133 34.0735ZM13.6006 35.483C14.3777 36.2572 15.6331 36.2572 16.4103 35.483L17.8251 34.0735C18.6022 33.2993 18.6022 32.0486 17.8251 31.2744C17.0479 30.5001 15.7925 30.5001 15.0154 31.2744L13.6006 32.6838C12.8434 33.4581 12.8434 34.7286 13.6006 35.483ZM24.8791 46.1037C25.995 46.1037 26.8718 45.2104 26.8718 44.1185V36.1778C26.8718 35.0859 25.9751 34.1926 24.8791 34.1926C23.7832 34.1926 22.8865 35.0859 22.8865 36.1778V44.1185C22.8865 45.2104 23.7832 46.1037 24.8791 46.1037Z" fill="white"/>
</svg>
