<svg width="19" height="19" viewBox="0 0 19 19" fill="none" xmlns="http://www.w3.org/2000/svg">
<path d="M16.5 0.75H2.5C1.5375 0.75 0.75 1.5375 0.75 2.5V18.25L4.25 14.75H16.5C17.4625 14.75 18.25 13.9625 18.25 13V2.5C18.25 1.5375 17.4625 0.75 16.5 0.75ZM4.25 11.25V9.08875L10.27 3.06875C10.445 2.89375 10.7163 2.89375 10.8913 3.06875L12.44 4.6175C12.615 4.7925 12.615 5.06375 12.44 5.23875L6.41125 11.25H4.25ZM13.875 11.25H8.1875L9.9375 9.5H13.875C14.3562 9.5 14.75 9.89375 14.75 10.375C14.75 10.8562 14.3562 11.25 13.875 11.25Z" fill="#EB5270"/>
</svg>
